<?xml version="1.0" standalone="no"?>
<!DOCTYPE svg PUBLIC "-//W3C//DTD SVG 20010904//EN"
 "http://www.w3.org/TR/2001/REC-SVG-20010904/DTD/svg10.dtd">
<svg version="1.0" xmlns="http://www.w3.org/2000/svg"
 width="360.000000pt" height="360.000000pt" viewBox="0 0 360.000000 360.000000"
 preserveAspectRatio="xMidYMid meet">
<metadata>
Created by potrace 1.11, written by Peter Selinger 2001-2013
</metadata>
<g transform="translate(0.000000,360.000000) scale(0.100000,-0.100000)"
fill="#000000" stroke="none">
<path d="M865 3090 c-39 -16 -65 -51 -85 -118 -20 -62 -21 -81 -15 -247 3
-101 13 -208 21 -245 8 -36 17 -103 19 -150 3 -47 10 -121 16 -165 8 -56 8
-91 1 -117 -12 -43 -5 -52 45 -63 28 -5 31 -9 19 -20 -20 -21 -94 3 -80 26 3
5 -2 9 -10 9 -8 0 -20 -9 -26 -19 -8 -16 -5 -23 21 -41 16 -12 38 -20 48 -17
11 2 25 1 32 -4 10 -6 6 -9 -13 -9 -29 0 -38 -14 -15 -23 6 -3 -1 -6 -18 -7
-28 -1 -29 -2 -7 -10 12 -5 22 -11 22 -13 0 -7 -55 1 -84 12 -24 10 -27 9 -18
-2 7 -8 30 -20 52 -27 21 -7 37 -17 34 -21 -2 -4 4 -13 13 -19 15 -9 12 -10
-15 -6 -18 3 -31 2 -27 -3 3 -5 -1 -11 -7 -14 -18 -5 41 -35 137 -68 99 -34
84 -38 -20 -5 -65 21 -81 23 -105 12 -25 -10 -27 -14 -16 -34 7 -12 15 -19 19
-16 4 4 7 3 7 -3 0 -6 35 -8 88 -7 l87 3 -97 -21 c-54 -11 -95 -24 -92 -29 3
-5 -1 -9 -8 -10 -7 0 -4 -4 7 -9 14 -6 15 -9 5 -10 -11 0 -10 -4 4 -12 15 -8
21 -8 24 0 4 13 22 6 22 -9 0 -5 -19 -9 -42 -9 -24 0 -50 -4 -57 -9 -23 -15
34 -26 73 -15 39 11 176 6 157 -5 -9 -6 13 -12 60 -19 l74 -9 -119 -2 c-102
-1 -117 -3 -112 -17 3 -8 2 -12 -4 -9 -6 3 -13 -1 -16 -9 -4 -12 -11 -13 -24
-6 -17 9 -30 4 -30 -11 0 -4 7 -10 16 -13 10 -4 13 -2 8 6 -5 8 -2 9 10 5 10
-4 27 -1 38 7 11 8 27 12 35 9 12 -5 10 -9 -8 -19 -13 -7 -30 -13 -37 -14 -25
0 -56 -50 -32 -50 6 0 26 7 46 15 19 8 32 10 29 5 -3 -6 0 -11 7 -11 7 -1 0
-4 -17 -8 -25 -6 -30 -11 -27 -34 3 -25 -6 -32 -30 -28 -5 0 -8 -6 -8 -15 0
-14 8 -16 48 -11 64 8 154 38 169 57 7 8 13 10 13 4 0 -8 27 -6 88 7 48 10
101 18 117 19 17 0 37 5 45 11 11 8 5 9 -24 4 -50 -8 -45 12 10 40 l39 19 -45
6 c-27 3 -44 10 -43 17 1 6 -15 14 -38 18 -22 4 -38 9 -35 12 2 3 28 0 57 -6
53 -12 123 -6 113 10 -9 15 -135 82 -199 105 -33 13 -51 23 -40 24 17 0 18 2
5 11 -11 8 -9 9 10 3 40 -11 223 -83 252 -99 42 -24 48 2 7 36 l-34 29 35 -12
c19 -6 42 -20 50 -31 14 -17 17 -17 28 -4 10 12 10 17 1 23 -8 5 -9 3 -4 -6 5
-9 4 -11 -4 -6 -6 4 -9 11 -6 16 3 4 -7 23 -22 42 -23 28 -21 27 18 -9 37 -35
48 -40 68 -32 16 7 21 14 16 27 -5 13 -3 14 6 5 8 -8 19 -9 38 -2 14 6 27 10
29 10 1 -1 18 -1 37 -1 27 0 35 4 35 18 0 10 16 32 36 48 75 60 89 75 77 81
-19 7 -16 21 7 28 11 3 20 13 20 21 0 8 7 14 16 14 9 0 14 7 13 18 -1 9 1 25
6 35 4 9 5 23 2 31 -6 14 10 65 31 103 17 30 15 38 -5 22 -17 -13 -17 -13 0 7
9 11 17 24 17 28 0 3 12 24 26 46 15 22 29 57 31 78 2 20 9 42 15 47 7 7 9
-11 4 -62 -4 -44 -2 -74 4 -78 11 -7 13 4 10 50 -1 17 2 27 6 22 11 -11 42 42
37 64 -4 12 0 19 10 19 16 0 27 -47 27 -117 0 -35 3 -41 17 -36 13 5 15 2 9
-18 -22 -71 -24 -90 -11 -79 7 6 16 25 21 43 l8 32 4 -35 c3 -30 -8 -73 -59
-238 -9 -29 -8 -35 13 -53 13 -11 17 -18 11 -14 -8 4 -13 -1 -13 -14 0 -10 3
-21 8 -23 4 -1 21 -30 37 -63 30 -61 78 -115 128 -148 16 -10 31 -16 35 -13 3
3 13 -1 23 -10 10 -9 25 -14 34 -11 8 4 15 2 15 -4 0 -6 4 -8 9 -4 5 3 12 1
15 -4 4 -5 -2 -12 -11 -14 -17 -4 -17 -5 0 -6 9 0 17 -5 17 -11 0 -5 7 -10 15
-10 8 0 15 5 15 11 0 6 8 8 19 4 40 -12 241 37 310 76 37 20 38 23 35 68 -4
63 -8 85 -14 91 -21 18 -49 70 -40 70 7 0 10 8 7 20 -3 11 -1 23 4 26 10 6 -5
24 -32 40 -13 7 -14 15 -7 34 7 19 11 21 17 11 6 -9 18 -11 34 -7 20 5 28 17
40 58 9 29 18 76 21 105 3 28 17 75 32 104 14 29 45 112 69 184 24 72 55 159
70 194 29 70 52 202 42 243 -15 60 -64 73 -142 38 -45 -21 -106 -68 -256 -200
-76 -67 -142 -115 -220 -163 -34 -21 -44 -60 -23 -92 l16 -24 31 41 c47 61 56
59 51 -8 l-4 -58 40 39 c45 44 68 40 25 -5 -36 -38 -26 -51 14 -17 16 13 27
28 24 31 -4 3 5 7 18 7 36 2 54 -2 57 -12 2 -5 11 -9 20 -9 15 0 15 -2 2 -10
-8 -5 -17 -5 -20 0 -3 4 -17 7 -31 7 -22 -2 -26 -7 -26 -32 1 -17 -2 -36 -7
-43 -9 -15 -1 -15 26 -1 14 8 18 8 14 0 -9 -13 27 -53 45 -51 8 2 23 2 33 1
18 -1 16 -5 -11 -34 -36 -37 -51 -76 -31 -78 7 -1 22 -2 33 -3 16 -1 19 -7 17
-29 -2 -21 0 -27 10 -22 7 4 2 -3 -11 -14 -21 -19 -21 -21 -5 -21 17 -1 16 -3
-6 -22 -14 -12 -18 -19 -8 -15 14 5 29 -10 27 -29 0 -4 5 -11 13 -16 10 -8 9
-9 -4 -4 -10 3 -20 1 -23 -4 -4 -6 -16 -10 -28 -9 -12 0 -16 3 -9 6 21 8 13
21 -19 28 -24 5 -30 11 -26 25 4 14 -4 23 -29 35 -19 9 -32 20 -29 25 3 5 -4
14 -15 20 -11 6 -20 17 -20 26 0 8 -11 20 -25 26 -18 8 -24 17 -19 30 3 10 1
18 -5 18 -5 0 -16 3 -24 6 -9 3 -31 -9 -53 -28 l-38 -33 28 37 c29 38 29 68 1
68 -8 0 -15 7 -15 15 0 8 -4 15 -9 15 -5 0 -11 8 -14 18 -3 14 -6 13 -15 -8
l-11 -25 -1 30 c-2 25 -3 27 -9 10 -16 -46 -47 -105 -53 -105 -11 0 -10 7 6
66 9 33 10 57 4 68 -5 9 -7 20 -4 25 3 5 -1 11 -9 15 -8 3 -15 13 -15 23 0 15
-2 16 -10 3 -9 -13 -12 -13 -25 4 -8 10 -26 19 -40 19 -14 0 -28 3 -31 8 -3 5
-16 9 -29 9 -13 0 -33 9 -43 20 -15 17 -24 19 -44 11 -17 -6 -29 -6 -36 1 -6
6 -12 6 -16 -1 -11 -16 -43 -13 -50 5 -3 8 -11 12 -16 9 -6 -4 -17 -1 -25 5
-12 10 -19 10 -32 -1 -11 -10 -14 -10 -9 -1 7 11 -14 18 -39 12 -5 -1 -21 -3
-35 -5 -14 -1 -28 -3 -31 -3 -10 -3 -40 -81 -49 -127 -7 -36 -8 -32 -10 35 -1
41 -4 70 -6 64 -7 -17 -42 -5 -47 15 -3 9 -5 -24 -6 -73 -1 -103 -9 -112 -12
-13 -2 70 -10 87 -33 67 -11 -8 -15 -8 -19 2 -4 9 -6 7 -6 -4 -1 -9 -6 -18
-12 -20 -8 -3 -6 -16 5 -42 23 -55 19 -69 -5 -17 -29 65 -38 74 -55 56 -8 -8
-21 -12 -29 -9 -9 4 -15 0 -15 -9 0 -21 -27 -42 -33 -25 -4 9 -6 7 -6 -4 -1
-9 5 -19 12 -21 7 -3 5 -6 -6 -6 -10 -1 -21 9 -26 21 -7 20 -8 19 -14 -9 -5
-25 -10 -30 -27 -26 -12 3 -20 0 -20 -7 0 -9 -4 -9 -17 1 -15 13 -16 12 -11
-9 5 -19 4 -21 -8 -11 -11 9 -14 8 -14 -6 0 -11 -5 -15 -16 -11 -26 10 -64 -4
-64 -24 0 -25 -26 -43 -55 -38 -14 3 -25 1 -25 -4 0 -5 -5 -6 -11 -2 -7 4 -9
0 -5 -14 7 -20 -16 -38 -35 -26 -5 3 -9 -4 -9 -15 0 -14 -6 -21 -20 -21 -11 0
-20 -5 -20 -11 0 -6 -7 -9 -15 -5 -8 3 -15 1 -15 -5 0 -6 -4 -7 -10 -4 -5 3
-10 22 -10 42 0 32 2 34 17 22 15 -13 15 -12 4 9 -6 12 -8 22 -4 22 3 0 18
-10 32 -22 21 -19 23 -19 10 -3 -28 35 -32 45 -13 38 13 -5 15 -3 9 7 -6 10
-3 12 13 8 18 -5 20 -3 13 11 -6 10 -6 23 0 32 5 7 9 10 9 4 0 -5 5 -2 11 8 5
9 7 23 4 30 -4 6 3 1 14 -13 l21 -25 -20 53 c-23 59 -24 65 -11 58 5 -4 7 3 4
14 -7 27 5 25 40 -7 17 -16 27 -22 23 -15 -10 16 4 15 23 -2 10 -9 22 -12 29
-7 10 6 10 11 -3 21 -13 11 -15 10 -9 -6 5 -15 4 -16 -4 -4 -13 17 -6 30 14
30 9 0 12 5 8 13 -4 6 6 1 21 -13 l29 -25 -20 32 c-10 17 -32 45 -47 63 -30
33 -32 54 -3 25 11 -12 16 -13 16 -4 0 7 18 -4 40 -26 46 -45 66 -52 65 -21
-1 22 -24 69 -25 51 0 -12 -20 16 -20 29 0 5 11 -1 24 -13 15 -14 26 -19 31
-12 15 25 100 -51 94 -85 0 -3 2 -8 5 -12 11 -10 6 18 -9 55 -19 46 -19 63 1
38 15 -19 16 -18 10 20 -5 30 -4 36 4 25 8 -11 9 -5 4 25 -5 27 -23 59 -58
101 -28 34 -91 116 -140 183 -98 133 -197 233 -260 262 -45 20 -61 22 -91 9z
m289 -542 c20 2 20 2 1 -9 -19 -12 -19 -12 0 -20 12 -5 0 -6 -30 -3 -48 5 -49
4 -30 -12 20 -16 20 -16 -2 -11 -13 3 -23 1 -23 -4 0 -5 -5 -9 -11 -9 -5 0 -7
5 -4 10 4 6 -7 10 -24 10 -17 0 -31 5 -31 11 0 5 6 7 13 4 6 -4 4 0 -6 8 -17
14 -16 16 13 22 19 4 36 3 43 -4 16 -16 27 -13 20 6 -4 11 -3 14 5 9 7 -4 12
-2 12 5 0 8 5 7 17 -2 9 -8 26 -13 37 -11z m174 -3 c-3 -3 -9 2 -12 12 -6 14
-5 15 5 6 7 -7 10 -15 7 -18z m1542 11 c0 -3 -4 -8 -10 -11 -5 -3 -10 -1 -10
4 0 6 5 11 10 11 6 0 10 -2 10 -4z m-1490 -31 c11 -13 10 -14 -4 -9 -9 3 -16
10 -16 15 0 13 6 11 20 -6z m1430 -20 c11 -13 7 -15 -26 -15 -39 1 -39 1 -14
15 14 8 26 14 26 15 1 0 7 -7 14 -15z m-317 -170 c-3 -9 -8 -14 -10 -11 -3 3
-2 9 2 15 9 16 15 13 8 -4z m222 -25 c3 -5 33 -10 65 -10 50 0 61 -3 71 -21
16 -31 -2 -46 -36 -31 -38 17 -50 15 -31 -7 16 -17 16 -19 -1 -25 -9 -4 -15
-4 -12 -1 8 7 -41 59 -63 68 -10 3 -18 13 -18 22 0 17 16 20 25 5z m-455 -20
c0 -5 -2 -10 -4 -10 -3 0 -8 5 -11 10 -3 6 -1 10 4 10 6 0 11 -4 11 -10z
m-335 -110 c-3 -5 -8 -20 -10 -31 -6 -28 -15 -37 -15 -15 0 19 17 56 26 56 3
0 2 -4 -1 -10z m-951 -133 c14 -10 15 -14 5 -15 -8 0 -23 -2 -34 -4 -12 -2
-21 4 -23 15 -4 21 26 23 52 4z m-54 -37 c26 -16 3 -22 -27 -6 -23 13 -24 15
-8 15 11 1 27 -3 35 -9z m448 -65 l37 7 -32 -31 c-18 -17 -28 -33 -23 -36 6
-4 10 -1 10 6 0 11 2 11 13 0 10 -10 9 -14 -5 -22 -24 -13 -23 -29 1 -29 11 0
23 -5 27 -11 12 -20 68 -38 81 -27 7 5 18 8 25 5 8 -4 7 -6 -4 -6 -10 -1 -18
-5 -18 -10 0 -14 43 -7 69 11 23 16 23 16 3 27 -19 10 -38 58 -28 69 10 9 36
-20 36 -40 0 -14 5 -18 15 -14 9 3 15 0 15 -10 0 -24 -20 -55 -31 -49 -5 4 -9
1 -9 -6 0 -6 -8 -9 -20 -6 -11 3 -20 1 -20 -4 0 -19 -83 -32 -128 -20 -46 12
-50 15 -95 69 -47 58 -28 160 25 131 11 -6 36 -8 56 -4z m957 -172 c-16 -40
-8 -75 21 -97 18 -12 29 -15 36 -8 6 6 17 8 24 5 15 -6 19 14 14 81 l-2 39 34
-7 c18 -4 41 -7 50 -7 33 -1 41 -73 10 -96 -9 -7 -11 -13 -4 -13 6 0 9 -7 6
-15 -4 -8 -10 -15 -15 -15 -5 0 -9 7 -9 15 0 18 -16 20 -27 3 -21 -33 -91 -62
-118 -50 -42 20 -125 88 -125 103 0 16 45 63 70 72 30 11 42 7 35 -10z m-964
-40 c13 -16 12 -17 -3 -4 -17 13 -22 21 -14 21 2 0 10 -8 17 -17z m-318 -90
c-7 -2 -19 -2 -25 0 -7 3 -2 5 12 5 14 0 19 -2 13 -5z m44 -9 c-3 -3 -12 -4
-19 -1 -8 3 -5 6 6 6 11 1 17 -2 13 -5z m76 -131 c-7 -2 -19 -2 -25 0 -7 3 -2
5 12 5 14 0 19 -2 13 -5z m-6 -19 c-3 -3 -12 -4 -19 -1 -8 3 -5 6 6 6 11 1 17
-2 13 -5z m-232 -134 c-3 -5 -14 -10 -23 -9 -14 0 -13 2 3 9 27 11 27 11 20 0z
m45 -4 c0 -11 -19 -15 -25 -6 -3 5 1 10 9 10 9 0 16 -2 16 -4z"/>
<path d="M1420 2545 c0 -8 5 -15 10 -15 6 0 10 -9 10 -20 0 -11 4 -20 9 -20 5
0 12 -8 14 -17 3 -10 5 2 4 26 -2 36 -6 45 -24 52 -17 6 -23 5 -23 -6z"/>
<path d="M1503 2524 c-2 -7 -3 -29 -1 -50 l4 -39 9 35 c8 33 9 34 15 10 6 -21
7 -19 11 15 3 35 1 41 -15 41 -10 0 -20 -6 -23 -12z"/>
<path d="M1564 2527 c-3 -9 -1 -24 4 -33 9 -16 10 -15 17 5 8 27 -11 54 -21
28z"/>
<path d="M1696 2394 c-4 -14 -5 -28 -3 -31 3 -2 8 8 11 23 4 14 5 28 3 31 -3
2 -8 -8 -11 -23z"/>
<path d="M2280 2405 c0 -8 2 -15 4 -15 2 0 6 7 10 15 3 8 1 15 -4 15 -6 0 -10
-7 -10 -15z"/>
<path d="M2316 2411 c-4 -7 -5 -15 -2 -18 9 -9 19 4 14 18 -4 11 -6 11 -12 0z"/>
<path d="M2048 2085 c-3 -11 -9 -29 -13 -40 -3 -11 1 -7 10 8 9 16 15 33 12
40 -2 6 -6 3 -9 -8z"/>
<path d="M744 1930 c0 -15 7 -20 28 -20 l28 0 -20 20 c-11 11 -24 20 -28 20
-4 0 -8 -9 -8 -20z"/>
<path d="M736 1738 c3 -4 19 -8 36 -8 17 0 28 3 25 7 -10 9 -67 11 -61 1z"/>
<path d="M763 1643 c9 -2 23 -2 30 0 6 3 -1 5 -18 5 -16 0 -22 -2 -12 -5z"/>
<path d="M1145 1620 c27 -12 43 -12 25 0 -8 5 -22 9 -30 9 -10 0 -8 -3 5 -9z"/>
<path d="M1284 1559 c87 -45 127 -56 100 -29 -10 10 -180 80 -192 79 -4 0 37
-23 92 -50z"/>
<path d="M1846 1577 c-16 -12 -16 -14 4 -32 18 -16 23 -17 30 -5 13 20 12 26
-3 39 -10 8 -18 7 -31 -2z"/>
<path d="M1981 1538 c-9 -23 5 -40 18 -21 3 6 17 14 31 18 24 8 24 8 5 16 -34
13 -45 10 -54 -13z"/>
<path d="M2670 1469 c-30 -11 -95 -28 -144 -37 -55 -11 -91 -23 -94 -31 -6
-18 58 -10 206 25 113 27 146 40 137 55 -9 14 -44 10 -105 -12z"/>
<path d="M2675 1409 c-38 -10 -81 -17 -95 -14 -17 4 -21 3 -11 -4 9 -6 -2 -11
-40 -17 -30 -5 -58 -9 -64 -10 -5 -1 -19 -2 -30 -3 -14 -1 -16 -4 -8 -12 8 -8
37 -8 110 0 168 20 209 30 222 57 13 29 11 29 -84 3z"/>
<path d="M2573 1342 c-51 -9 -93 -19 -93 -24 0 -4 6 -8 13 -8 8 0 7 -3 -3 -10
-21 -13 24 -28 107 -35 38 -3 81 -8 96 -10 19 -3 26 -1 21 7 -5 8 -2 9 11 5
14 -6 16 -3 12 13 -3 11 -2 20 3 20 10 0 18 31 13 48 -6 16 -62 14 -180 -6z"/>
<path d="M835 1340 c4 -6 11 -8 16 -5 14 9 11 15 -7 15 -8 0 -12 -5 -9 -10z"/>
<path d="M1105 1321 c-11 -5 -38 -14 -60 -21 -68 -20 -162 -70 -162 -85 0 -8
6 -15 14 -15 15 0 135 59 143 70 3 4 34 19 70 33 41 17 56 26 40 26 -14 0 -34
-4 -45 -8z m-185 -101 c0 -5 -2 -10 -4 -10 -3 0 -8 5 -11 10 -3 6 -1 10 4 10
6 0 11 -4 11 -10z"/>
<path d="M1225 1300 c-27 -10 -58 -19 -68 -19 -31 -2 -110 -43 -96 -52 8 -5 2
-9 -16 -11 -16 -2 -31 -9 -33 -17 -4 -11 2 -13 27 -8 18 4 30 3 26 -2 -3 -5
-2 -11 2 -14 5 -2 3 -3 -3 -1 -6 1 -17 -1 -23 -6 -8 -5 -3 -7 15 -7 15 0 30
-6 32 -12 2 -6 10 -11 18 -11 9 0 13 -3 11 -7 -3 -5 23 -7 56 -6 66 1 83 17
55 50 -11 14 -11 16 0 9 11 -7 12 -4 3 12 -6 11 -16 22 -23 25 -7 2 7 8 31 13
25 5 47 16 49 23 5 14 -22 12 -61 -4 -12 -5 -17 -3 -15 6 2 8 21 19 42 24 22
6 41 16 44 23 5 16 -13 14 -73 -8z"/>
<path d="M1630 1284 c-19 -18 -21 -24 -8 -24 8 0 23 11 32 25 21 32 9 31 -24
-1z"/>
<path d="M850 1260 c-13 -8 -13 -10 2 -10 9 0 20 5 23 10 8 13 -5 13 -25 0z"/>
<path d="M2458 1253 c7 -3 16 -2 19 1 4 3 -2 6 -13 5 -11 0 -14 -3 -6 -6z"/>
<path d="M1383 1228 c-18 -19 -19 -25 -8 -35 9 -8 16 -9 20 -3 3 6 1 10 -6 10
-7 0 -6 8 5 25 20 31 16 32 -11 3z"/>
<path d="M2435 1232 c11 -9 207 -42 246 -41 23 0 23 1 3 9 -18 7 -64 15 -219
36 -24 3 -36 1 -30 -4z"/>
<path d="M2668 1233 c6 -2 18 -2 25 0 6 3 1 5 -13 5 -14 0 -19 -2 -12 -5z"/>
<path d="M2456 1185 c-3 -8 0 -17 6 -21 7 -5 8 -2 3 6 -6 10 -2 11 16 6 39
-11 53 -14 71 -15 11 -1 15 -6 12 -16 -5 -12 -10 -13 -20 -4 -10 8 -14 8 -14
1 0 -6 9 -16 19 -22 26 -13 34 -13 25 3 -4 6 3 2 15 -10 25 -26 23 -25 73 -28
39 -2 40 2 9 39 -9 11 -10 16 -3 12 16 -10 15 2 -1 19 -31 31 -201 55 -211 30z"/>
<path d="M1266 1155 c-27 -25 -35 -50 -14 -43 12 4 55 68 45 68 -2 0 -16 -11
-31 -25z"/>
<path d="M1393 1129 c-12 -30 -11 -32 3 -17 9 8 14 23 12 33 -2 12 -7 7 -15
-16z"/>
<path d="M2415 1150 c3 -5 14 -10 23 -10 15 0 15 2 2 10 -20 13 -33 13 -25 0z"/>
<path d="M1335 1120 c-3 -5 -1 -10 4 -10 6 0 11 5 11 10 0 6 -2 10 -4 10 -3 0
-8 -4 -11 -10z"/>
<path d="M575 690 c-3 -5 3 -10 14 -10 12 0 21 5 21 10 0 6 -6 10 -14 10 -8 0
-18 -4 -21 -10z"/>
</g>
</svg>
